<svg width="14" height="14" viewBox="0 0 14 14" fill="none" xmlns="http://www.w3.org/2000/svg">
<path d="M12.223 10.125L7.72299 2.25C7.62487 2.07687 7.48258 1.93286 7.31064 1.83267C7.13869 1.73248 6.94325 1.67969 6.74424 1.67969C6.54524 1.67969 6.34979 1.73248 6.17785 1.83267C6.0059 1.93286 5.86361 2.07687 5.76549 2.25L1.26549 10.125C1.16632 10.2968 1.11431 10.4917 1.11475 10.69C1.11519 10.8884 1.16806 11.0831 1.26799 11.2544C1.36793 11.4257 1.51139 11.5676 1.68382 11.6656C1.85626 11.7636 2.05154 11.8143 2.24987 11.8125H11.2499C11.4472 11.8123 11.6411 11.7602 11.812 11.6614C11.9828 11.5625 12.1247 11.4205 12.2233 11.2495C12.3219 11.0785 12.3738 10.8846 12.3737 10.6872C12.3737 10.4898 12.3217 10.2959 12.223 10.125Z" stroke="white" stroke-width="1.125" stroke-linecap="round" stroke-linejoin="round"/>
<path d="M6.75 5.0625V7.3125" stroke="white" stroke-width="1.125" stroke-linecap="round" stroke-linejoin="round"/>
<path d="M6.75 9.5625H6.75563" stroke="white" stroke-width="1.125" stroke-linecap="round" stroke-linejoin="round"/>
</svg>
